<svg t="1660288733371" class="icon" viewBox="0 0 1024 1024" version="1.1" xmlns="http://www.w3.org/2000/svg" p-id="3822" width="200" height="200"><path d="M502.7 440l-45.6-45.6c-1.5-1.5-1.5-3.8 0-5.3L794.2 51.9c1.5-1.5 3.8-1.5 5.3 0l45.6 45.6c1.5 1.5 1.5 3.8 0 5.3L508 440c-1.5 1.5-3.8 1.5-5.3 0z" fill="#F24500" p-id="3823" style="user-select: auto;"></path><path d="M779.8 99.2L488.3 390.7c-6.7 6.7-10.1 15.3-10.4 24.1 0.7 0.8 1.2 1.7 2 2.5 14.1 14.1 36.9 14.1 50.9 0l291.5-291.5c6.7-6.7 10.1-15.3 10.4-24.1-0.7-0.8-1.2-1.7-2-2.5-14-14.1-36.8-14.1-50.9 0z" fill="#F25A25" p-id="3824" style="user-select: auto;"></path><path d="M725.3 951.7h-421c-67.8 0-124-52.7-128.2-120.4l-22.3-356.4h721.9l-22.3 356.4c-4.2 67.7-60.3 120.4-128.1 120.4z" fill="#39AFDA" p-id="3825" style="user-select: auto;"></path><path d="M153.8 474.8l22.3 356.4c0.8 13 3.6 25.4 7.9 37 2.7 7.3 8.5 13.1 15.9 15.8 13.8 5.1 28.7 8 44.3 8h492.7c27.5 0 50.3-21.4 52-48.9l23-368.4H153.8z" fill="#9CE4F3" p-id="3826" style="user-select: auto;"></path><path d="M788.9 843.2l23-368.4H202.4l22.3 356.4c0 0.6 0.1 1.2 0.1 1.8 2.4 31 27.4 56.3 58.4 58.6 3.1 0.2 6.3 0.4 9.5 0.4h444.1c27.6 0.1 50.4-21.3 52.1-48.8z" fill="#52C5F8" p-id="3827" style="user-select: auto;"></path><path d="M962.7 494.7H66.9c-4 0-7.2-3.2-7.2-7.2V362.8c0-4 3.2-7.2 7.2-7.2h895.7c4 0 7.2 3.2 7.2 7.2v124.7c0.1 4-3.1 7.2-7.1 7.2z" fill="#FC8308" p-id="3828" style="user-select: auto;"></path><path d="M900.3 355.6h-771c-38.4 0-69.5 31.1-69.5 69.5 0 4.6 0.5 9 1.3 13.4 6.2-32 34.4-56.2 68.2-56.2h771.1c33.8 0 62 24.2 68.2 56.2 0.8-4.3 1.3-8.8 1.3-13.4 0-38.3-31.2-69.5-69.6-69.5z" fill="#FF9843" p-id="3829" style="user-select: auto;"></path><path d="M63.8 448.3c9.6 27 35.2 46.4 65.5 46.4h771.1c30.3 0 55.9-19.4 65.5-46.4H63.8z" fill="#FE6A19" p-id="3830" style="user-select: auto;"></path><path d="M393.1 774.1l-46.9 11c-1.5 0.4-3-0.6-3.3-2.1L300 599.8c-0.4-1.5 0.6-3 2.1-3.3l46.9-11c1.5-0.4 3 0.6 3.3 2.1l42.9 183.2c0.3 1.5-0.6 3-2.1 3.3zM621.2 774.1l46.9 11c1.5 0.4 3-0.6 3.3-2.1l42.9-183.2c0.4-1.5-0.6-3-2.1-3.3l-46.9-11c-1.5-0.4-3 0.6-3.3 2.1l-42.9 183.2c-0.3 1.5 0.7 3 2.1 3.3zM531.2 780.3H483c-1.5 0-2.8-1.2-2.8-2.8V589.4c0-1.5 1.2-2.8 2.8-2.8h48.2c1.5 0 2.8 1.2 2.8 2.8v188.2c0 1.5-1.2 2.7-2.8 2.7z" fill="#FFFFFF" p-id="3831" style="user-select: auto;"></path></svg>